<svg xmlns="http://www.w3.org/2000/svg" viewBox="0 0 222.19 209.5">
  <title>favicon</title>
  <g>
    <path d="M7.62,73.27c7.49-5.43,15.23-11,23-16.65C47.8,44.21,64.92,31.69,82.22,19.44,91,13.25,99.43,6.68,108.47.91c2.48-1.58,4.21-.9,6.19.51q17.24,12.36,34.5,24.69Q180,48.25,210.8,70.44a16.94,16.94,0,0,1,4.76,4.49c0,1.21,0,2.81,0,4.4,0,3.15-1.69,4.55-4.69,4.65-.92,0-1.83,0-2.75,0H14.69c-.69,0-1.37,0-2.06,0C7.72,83.92,6,82.05,7,77.3,7.26,76.16,6.91,75,7.62,73.27Z" fill="#eb028c"/>
    <path d="M1.05,198.05c2.05-.8,4.42.08,6.07-2,.9-2.31.06-5,.59-7.85l2.34-2.47H214.69c1.48,2.21,1.22,4.43,1.18,6.58,0,2.69.78,4.61,3.66,5.34,2.31.59,2.75,2.46,2.65,4.59-.07,1.49,0,3,0,4.48l-2.55,2.81H9.2C.15,209.5-1.42,207.34,1.05,198.05Z" fill="#eb028c"/>
    <path d="M145.54,111.15l-1.21,2.61-.47-.07.11.41-2.09,3.72c-.34,1.57-2.17,2.48-1.91,4.32-.48.49-1,1-1.43,1.46l-3.12-1.46-1.38-2a2.42,2.42,0,0,0-2-2.3q-1.65-1.84-3.29-3.7c0-.15.07-.31.1-.47l-.47.09-1-1.15a9.68,9.68,0,0,0-4.18-4.38c-.64-.67-1.27-1.34-1.9-2-.43-.91-.93-1.75-2.19-1.31l-4.08-.64a5.6,5.6,0,0,0-6.74-.09l-4.55.85c-.79-.3-1-.11-1,.74l-1.77,1c-.48-.16-.55,0-.3.39l-1.18,1c-8,4.76-12.51,12.28-16.3,20.4-.27.54-.55,1.07-.82,1.6-.93,0-.81.53-.59,1.13-4.74,9.44-9.3,19-15.36,27.67-.93.8-2,1.54-2.15,2.91L63,163.31c-.07-.08-.16-.22-.22-.21s-.17.14-.25.23c-7,7.88-15.3,13.47-26.12,14.5-1,.09-2.22-.07-1.78,1.61-2.21-.84-4.53-.45-6.75-.3-3.45.22-5.07-1.77-6.38-4.4a6.91,6.91,0,0,1,.21-7.06c1.76-2.73,4.46-4.87,7.69-5,10.69-.28,18-6.27,24.47-13.8,1,0,1.16-.92,1.54-1.52,6-9.41,10.4-19.68,15.7-29.47C77.52,106.1,85.7,96,98.13,90c2.31-1.12,5.17-.51,7.19-2.4l9.18-.11A50.81,50.81,0,0,1,132,94.11l1.39,1.13a3.89,3.89,0,0,0,2.32,2.19l2.79,2.9-.09.37.37,0,1.68,1.75c0,.12,0,.24,0,.36l.38-.09,3.24,4C144.52,108.2,145,109.67,145.54,111.15Z" fill="#060606"/>
    <path d="M168.09,121q-1.47,2.66-2.93,5.31l-.5-.08.3.4-3.35,6.43-.5-.07.23.44c-.57,1.05-1.14,2.1-1.7,3.15l-.47-.13.2.43-4.64,8.56-.49-.08.19.43-5.17,7.95-.44-.11.19.4c-6.71,10.21-14,20.07-26,24.34-14.25,5.06-26.94,1.49-37.87-8.71-3.42-3.19-6.08-7-9.06-10.85,3.79-4.53,5.28-10.44,9.57-15.22,7.5,13.87,16.69,23.62,35.3,18,8.39-5.63,14.64-15.32,20.44-25.41,5.53-9.62,9.85-20,16.81-28.73,8.36-10.53,18.92-17.3,32.44-19.16,4.3-.59,7.62.54,9.89,4.32l-.21.44.47-.07a5.55,5.55,0,0,1,.64,4.23c-.79.37-1.39.82-.58,1.74l-1.48,2.52-.44-.12.1.41-3.31,1.9c-.64-.58-1.24-1-1.32.38l-5.6,1c-.91-.55-1.49-.43-1.57.75L184.18,107l-.43-.17.06.47-2.43,1.24c-.84-.39-1.14-.12-.93.77-4.46,3.32-8.74,6.82-12.06,11.35l-.45-.08Z" fill="#060606"/>
    <path d="M184.85,112.28c4.81-2.8,16-2.56,19.69.34v42.43c-3.47,3.81-15,4.11-19.69.42Z" fill="gray"/>
    <path d="M120.17,159.33c-5.8,1.22-11.84.9-18.24.16V108.11c5.69,0,10.91-.07,16.13,0A2.72,2.72,0,0,1,120.9,111q-.06,23.65-.22,47.29C120.68,158.5,120.49,158.7,120.17,159.33Z" fill="#eb028c"/>
    <path d="M44.91,111.56V156c-5.88,2.76-11.67,2.06-18.19.48-.66-15-.3-29.71-.23-44.63C33,111.14,38.71,111.46,44.91,111.56Z" fill="gray"/>
    <path d="M58.59,124.3c-2-2.85-3.47-4.71-4.69-6.72C48.36,108.49,40.06,104,29.69,103c-4.34-.45-7.87-3.27-8.29-7.33A7.13,7.13,0,0,1,25.61,88c4.31-1.68,9-1,13.48.09,11.14,2.82,19.85,9.21,27.14,18.79C65.54,112.94,60.92,117.59,58.59,124.3Z" fill="#060606"/>
    <path d="M193.16,165.76c.74,1.73,2.43.42,3.6,1.14a8.08,8.08,0,0,1,3,9.1c-1.1,3-3.24,4.31-6.83,4.37-15.72.31-25.82-9.15-35.66-19.6-.48-6.75,5.33-10.53,7.21-16.54,4.22,3.5,6.73,7.89,10.15,11.44a29,29,0,0,0,17.65,9.2C192.55,165.17,192.86,165.46,193.16,165.76Z" fill="#060606"/>
  </g>
</svg>
