<svg id="Capa_1" enable-background="new 0 0 512 512" height="512" viewBox="0 0 512 512" width="512" xmlns="http://www.w3.org/2000/svg"><g><path d="m257.03 492.729c5.473-3.661 9.078-9.894 9.078-16.973v-192.441c0-7.079-3.606-13.312-9.078-16.973h-12.362c-5.473 3.661-9.078 9.895-9.078 16.973v192.441c0 7.079 3.606 13.312 9.078 16.973z" fill="#ffc344"/><path d="m244.668 266.342c5.473 3.661 9.078 9.895 9.078 16.973v192.441c0 7.079-3.606 13.312-9.078 16.973 3.242 2.169 7.138 3.437 11.332 3.437 11.272 0 20.41-9.138 20.41-20.41v-192.441c0-16.375-18.305-25.962-31.742-16.973z" fill="#feb137"/><path d="m244.668 3.437c-5.473 3.661-9.078 9.894-9.078 16.973v324.386h10.302 7.855 10.302v-324.386c0-7.079-3.606-13.312-9.078-16.973z" fill="#ffd15b"/><path d="m256 0c-4.194 0-8.09 1.268-11.332 3.437 5.473 3.661 9.078 9.894 9.078 16.973v324.386h22.664v-324.386c0-11.272-9.138-20.41-20.41-20.41z" fill="#ffc344"/><g><path d="m287.936 269.969h-12.377c-7.828 5.532-10.503 14.304-8.377 22.238l54.838 204.66c1.369 5.111 4.287 8.771 8.389 11.673l20.025-9.074z" fill="#ffd15b"/></g><path d="m361.45 486.302-54.838-204.66c-2.918-10.888-14.109-17.35-24.997-14.432-.489 0-3.583 1.106-6.055 2.76 3.977 2.654 7.054 6.692 8.389 11.673l54.838 204.66c2.323 8.668-1.311 17.513-8.377 22.238 4.716 3.147 10.702 4.342 16.609 2.76 10.886-2.919 17.348-14.111 14.431-24.999z" fill="#ffc344"/><path d="m230.386 267.21c-5.907-1.583-11.893-.388-16.609 2.76 7.066 4.725 10.7 13.57 8.377 22.238l-54.838 204.66c-1.335 4.981-4.412 9.019-8.389 11.673 1.81 1.211 3.835 2.165 6.055 2.76 10.888 2.918 22.08-3.544 24.997-14.432l54.838-204.66c2.919-10.89-3.542-22.082-14.431-24.999z" fill="#ffc344"/><path d="m231.962 273.856-18.185-3.887c-4.376 2.995-7.143 7.023-8.389 11.673l-54.838 204.66c-2.115 7.895.521 16.708 8.377 22.238l15.688-2.893 60.974-222.332z" fill="#ffd15b"/><path d="m230.386 267.21c-5.907-1.583-11.893-.388-16.609 2.76 7.066 4.725 10.7 13.57 8.377 22.238l-54.838 204.66c-1.335 4.981-4.412 9.019-8.389 11.673 1.81 1.211 3.835 2.165 6.055 2.76 10.888 2.918 22.08-3.544 24.997-14.432l54.838-204.66c2.919-10.89-3.542-22.082-14.431-24.999z" fill="#ffc344"/><path d="m458.293 45.734c-3.922 0-416.045 0-419.008 0-8.037 0-14.552 6.515-14.552 14.552v293.897c0 8.037 6.515 14.552 14.552 14.552h419.008c8.037 0 14.552-6.515 14.552-14.552v-293.898c-.001-8.036-6.516-14.551-14.552-14.551z" fill="#e5eef9"/><path d="m472.715 45.734h-22.664c8.037 0 14.552 6.515 14.552 14.552v293.897c0 8.037-6.515 14.552-14.552 14.552h22.664c8.037 0 14.552-6.515 14.552-14.552v-293.898c0-8.036-6.515-14.551-14.552-14.551z" fill="#d5e3f4"/><path d="m382.354 159.499-27.362 15.798c-4.971 2.87-11.328 1.167-14.198-3.804l-4.571-7.917c-2.87-4.971-1.167-11.328 3.804-14.198 1.074-.62 1.984-1.409 2.74-2.305l20.08-11.593c9.595-5.54 12.883-17.809 7.343-27.405-5.54-9.595-17.81-12.883-27.405-7.343-8.93 5.156-31.982 18.465-41.136 23.75-4.971 2.87-11.328 1.167-14.198-3.804l-5.197-9.001c-2.87-4.971-9.227-6.675-14.198-3.804l-158.784 91.674c-9.745 5.626-13.084 18.087-7.458 27.833s18.088 13.084 27.833 7.458l9.359-5.404c4.971-2.87 11.328-1.167 14.198 3.804l5.61 9.717c2.87 4.971 1.167 11.328-3.804 14.198l-36.814 21.254c-9.745 5.626-13.084 18.087-7.458 27.833 5.626 9.745 18.088 13.084 27.833 7.458 14.155-8.173 58.159-33.578 72.82-42.042 4.971-2.87 11.328-1.167 14.198 3.804l4.158 7.201c2.87 4.971 9.227 6.675 14.198 3.804l158.784-91.674c9.745-5.626 13.084-18.088 7.458-27.833-5.627-9.747-18.088-13.086-27.833-7.459z" fill="#2abcc8"/><path d="m452.633 238.814-62.505 36.087c-8.094 4.673-18.443 1.9-23.116-6.194-4.673-8.094-1.9-18.443 6.194-23.116l62.505-36.087c8.094-4.673 18.443-1.9 23.116 6.194 4.673 8.094 1.9 18.443-6.194 23.116z" fill="#3c87d0"/><path d="m138.794 154.387-62.505 36.087c-8.094 4.673-18.443 1.9-23.116-6.194-4.673-8.094-1.9-18.443 6.194-23.116l62.505-36.087c8.094-4.673 18.443-1.9 23.116 6.194 4.673 8.094 1.9 18.443-6.194 23.116z" fill="#eb5569"/><path d="m382.552 346.907h-22.664c4.552 0 8.241 3.69 8.241 8.241v27.172c0 4.552-3.69 8.241-8.241 8.241h22.664c4.552 0 8.241-3.69 8.241-8.241v-27.172c.001-4.551-3.689-8.241-8.241-8.241z" fill="#ffd15b"/><path d="m368.13 382.32v-27.172c0-4.552-3.69-8.241-8.241-8.241h-230.441c-4.552 0-8.241 3.69-8.241 8.241v27.172c0 4.552 3.69 8.241 8.241 8.241h230.441c4.551.001 8.241-3.689 8.241-8.241z" fill="#ffe177"/></g></svg>