<svg xmlns="http://www.w3.org/2000/svg" version="1.1" viewBox="-5.0 -10.0 110.0 135.0">
 <path d="m48.75 46.719-1.3281 1.3281c-0.73047 0.73047-0.73047 1.918 0 2.6523 0.73047 0.73047 1.918 0.73047 2.6523 0l1.3281-1.3281c0.73047-0.73047 0.73047-1.918 0-2.6523-0.73047-0.73047-1.918-0.73047-2.6523 0z"/>
 <path d="m42.121 53.352-6.6289 6.6289c-0.73047 0.73047-0.73047 1.918 0 2.6523 0.73047 0.73047 1.918 0.73047 2.6523 0l6.6289-6.6289c0.73047-0.73047 0.73047-1.918 0-2.6523-0.73047-0.73047-1.918-0.73047-2.6523 0z"/>
 <path d="m92.027 17.805-7.9531-7.9531c-1.4648-1.4648-3.8398-1.4648-5.3047 0l-2.6523 2.6523c-1.4648 1.4648-1.4648 3.8398 0 5.3047l-3.2773 3.2656-2.3242-2.3242c-3.1289-3.1289-7.2852-4.8477-11.707-4.8477-1.0703 0-2.0352 0.59375-2.5156 1.5547-0.48047 0.96094-0.37891 2.0859 0.21875 2.8828 2.3594 3.4453 1.9297 8.0898-1.0234 11.047l-27.953 27.953c-1.7227 1.7266-2.0703 4.293-1.0781 6.3828l-14.516 14.512c-0.71094 0.70703-1.0977 1.6484-1.0977 2.6484s0.39062 1.9414 1.0977 2.6484l0.003906 0.003906-4.5234 4.5234c-0.73047 0.73047-0.73047 1.918 0 2.6523 0.73047 0.73047 1.918 0.73047 2.6523 0l4.5234-4.5234 0.003906 0.003906c0.71094 0.71094 1.6484 1.0977 2.6484 1.0977 1.0039 0 1.9375-0.39062 2.6484-1.0977l5.5117-5.5117c0.26953-0.26953 0.59375-0.44531 0.95703-0.51953l4.3672-0.875c1.0977-0.19531 2.1055-0.72656 2.9102-1.5312l3.4219-3.4219c0.76172 0.35938 1.5781 0.5625 2.4023 0.5625 1.4375 0 2.8789-0.54688 3.9766-1.6445l32.824-32.824c0.70703 0.71094 1.6445 1.0977 2.6484 1.1016h0.003906c1.0039 0 1.9414-0.39062 2.6523-1.0977l2.6523-2.6523c1.4648-1.4609 1.4648-3.8438 0-5.3047l-3.418-3.418 3.2773-3.2695c1.4648 1.4492 3.8281 1.4453 5.2891-0.011718l2.6523-2.6523c1.4648-1.4648 1.4648-3.8398 0-5.3047zm-61.035 57.289c-0.26563 0.26562-0.57422 0.42969-0.95703 0.5l-4.4141 0.88281c-1.0859 0.22266-2.0742 0.75391-2.8633 1.543l-5.5039 5.5117-2.6602-2.6562 14.27-14.27 5.3086 5.3086-3.1758 3.1797zm9.8047-4.5078c-0.73047 0.73047-1.918 0.73047-2.6523 0l-7.9531-7.9531c-0.73047-0.73047-0.73047-1.9219-0.003906-2.6523l27.949-27.949c3.7891-3.7891 4.6797-9.5234 2.3594-14.27 2.7812 0.36328 5.3477 1.625 7.3633 3.6406l4.4297 4.4336-7.9531 7.9531c-0.71094 0.70703-1.0977 1.6484-1.0977 2.6523s0.39062 1.9414 1.0977 2.6523l3.9766 3.9766-27.52 27.52zm30.172-30.172-3.9766-3.9766 2.6523-2.6523 3.9766 3.9766zm7.957-2.6523-6.6289-6.6289 2.6523-2.6523 6.6289 6.6289zm-3.4219-14.027 3.2773-3.2656 2.6445 2.6445-3.2773 3.2656zm11.219-0.62891-7.9531-7.9531 2.6523-2.6523 7.9531 7.9531z"/>
<text x="0.0" y="117.5" font-size="5.0" font-weight="bold" font-family="Arbeit Regular, Helvetica, Arial-Unicode, Arial, Sans-serif" fill="#000000">Created by Hilmy Abiyyu Asad</text><text x="0.0" y="122.5" font-size="5.0" font-weight="bold" font-family="Arbeit Regular, Helvetica, Arial-Unicode, Arial, Sans-serif" fill="#000000">from Noun Project</text></svg>