<?xml version="1.0" encoding="utf-8"?>
<!-- Generator: Adobe Illustrator 23.0.1, SVG Export Plug-In . SVG Version: 6.00 Build 0)  -->
<svg version="1.1" id="Layer_1" xmlns="http://www.w3.org/2000/svg" xmlns:xlink="http://www.w3.org/1999/xlink" x="0px" y="0px"
	 viewBox="0 0 512 512" style="enable-background:new 0 0 512 512;" xml:space="preserve">
<g>
	<path d="M374,50c-3.3,0-6,2.7-6,6s2.7,6,6,6c42,0,76,34,76,76c0,3.3,2.7,6,6,6s6-2.7,6-6C461.9,89.5,422.5,50.1,374,50L374,50z"/>
	<path d="M456,153c-8.3,0-15-6.7-15-15c0-36.9-30.1-67-67-67c-8.3,0-15-6.7-15-15s6.7-15,15-15h4.2l0.1,0.1
		C429.7,43.4,470.9,86,471,138C471,146.3,464.2,153,456,153z"/>
</g>
<g>
	<path d="M374,9c-3.3,0-6,2.7-6,6s2.7,6,6,6c64.6,0,117,52.4,117,117c0,3.3,2.7,6,6,6s6-2.7,6-6C503,66.8,445.2,9,374,9z"/>
	<path d="M497,153c-8.3,0-15-6.7-15-15c0-59.5-48.5-108-108-108c-8.3,0-15-6.7-15-15s6.7-15,15-15h0C450,0,512,62,512,138
		C512,146.3,505.3,153,497,153z"/>
</g>
<g>
	<path d="M335,69.3c-10.8-10.8-28.4-10.8-39.2,0L18.9,346.1c-10.8,10.8-10.8,28.4,0,39.2L126.6,493c10.8,10.8,28.4,10.8,39.2,0
		c0,0,0,0,0,0l276.8-276.9c10.8-10.8,10.8-28.4,0-39.2c0,0,0,0,0,0L335,69.3z M434.2,207.7L157.4,484.5c-6.2,6.2-16.1,6.2-22.3,0
		L27.4,376.9c-6.1-6.2-6.1-16.1,0-22.3L304.3,77.8c6.2-6.1,16.1-6.1,22.3,0l107.7,107.7C440.4,191.6,440.4,201.5,434.2,207.7
		C434.2,207.7,434.2,207.7,434.2,207.7L434.2,207.7z"/>
	<path d="M146.2,510.1c-9.4,0-18.8-3.6-26-10.7L12.6,391.7c-14.3-14.3-14.3-37.6,0-52L289.4,62.9c14.3-14.3,37.6-14.3,52,0l0,0
		l107.7,107.7c6.9,6.9,10.8,16.2,10.8,26c0,9.8-3.8,19-10.8,26L172.2,499.4C165,506.6,155.6,510.1,146.2,510.1z M315.4,82.2
		c-1.7,0-3.5,0.7-4.8,2L33.8,361c-2.6,2.6-2.6,6.9,0,9.6l107.7,107.7c2.6,2.6,6.9,2.6,9.5,0l276.9-276.9c1.3-1.3,2-3,2-4.8
		c0-1.8-0.7-3.5-2-4.8L320.2,84.1C318.9,82.8,317.1,82.2,315.4,82.2z"/>
</g>
<g>
	<path d="M265.4,192c-15.1,15.1-15.1,39.5,0,54.6c15.1,15.1,39.5,15.1,54.6,0l0,0c15.1-15.1,15.1-39.5,0-54.6S280.5,176.9,265.4,192
		z M319.3,219.3c0,14.7-11.9,26.6-26.6,26.6c-14.7,0-26.6-11.9-26.6-26.6c0-14.7,11.9-26.6,26.6-26.6c7.1,0,13.8,2.8,18.8,7.8
		C316.5,205.5,319.3,212.3,319.3,219.3L319.3,219.3z"/>
	<path d="M292.7,266.9C292.7,266.9,292.7,266.9,292.7,266.9c-12.7,0-24.7-5-33.7-14c-18.6-18.6-18.6-48.8,0-67.4v0c0,0,0,0,0,0
		c9-9,21-14,33.7-14c0,0,0,0,0,0c12.7,0,24.7,5,33.7,14c18.6,18.6,18.6,48.8,0,67.4C317.4,262,305.4,266.9,292.7,266.9z
		 M292.7,201.7C292.7,201.7,292.7,201.7,292.7,201.7c-9.7,0-17.6,7.9-17.6,17.6c0,9.7,7.9,17.6,17.6,17.6c9.7,0,17.6-7.9,17.6-17.6
		l7.7,0l-7.7,0c0-4.6-1.9-9.2-5.1-12.4C301.8,203.5,297.4,201.7,292.7,201.7z"/>
</g>
<g>
	<path d="M241.2,317.7c-12.3,0-22.3,10-22.3,22.3c0,12.3,10,22.3,22.3,22.3s22.3-10,22.3-22.3c0-5.9-2.4-11.6-6.5-15.8
		C252.8,320.1,247.1,317.7,241.2,317.7z M248.5,347.3c-4,4-10.6,4-14.6,0s-4-10.6,0-14.6c4-4,10.6-4,14.6,0c1.9,1.9,3,4.6,3,7.3
		C251.5,342.8,250.4,345.4,248.5,347.3L248.5,347.3z"/>
	<path d="M241.2,371.4c-17.3,0-31.3-14-31.3-31.3c0-8.4,3.3-16.2,9.2-22.1c5.9-5.9,13.8-9.2,22.1-9.2c0,0,0.1,0,0.1,0
		c8.2,0,16.3,3.3,22.1,9.2c5.9,5.9,9.2,13.8,9.2,22.1C272.5,357.3,258.4,371.4,241.2,371.4z M241.2,338.7c-0.2,0-0.6,0.1-0.9,0.4
		c-0.5,0.5-0.5,1.3,0,1.9c0.5,0.5,1.3,0.5,1.9,0l0,0c0.2-0.2,0.4-0.6,0.4-0.9c0-0.4-0.1-0.7-0.4-1
		C241.8,338.8,241.4,338.7,241.2,338.7z"/>
</g>
<g>
	<path d="M187.3,371.6c-12.3,0-22.3,10-22.3,22.3c0,12.3,10,22.3,22.3,22.3s22.3-10,22.3-22.3c0-5.9-2.4-11.6-6.5-15.8
		C198.9,373.9,193.2,371.6,187.3,371.6z M194.6,401.2c-4,4-10.6,4-14.6,0s-4-10.6,0-14.6c4-4,10.6-4,14.6,0c1.9,1.9,3,4.6,3,7.3
		C197.6,396.6,196.6,399.2,194.6,401.2z"/>
	<path d="M187.3,425.2c-17.3,0-31.3-14-31.3-31.3c0-8.4,3.3-16.2,9.2-22.1c5.9-5.9,13.8-9.2,22.1-9.2c0,0,0.1,0,0.1,0
		c8.2,0,16.3,3.3,22.1,9.2c5.9,5.9,9.2,13.8,9.2,22.1C218.6,411.2,204.6,425.2,187.3,425.2z M187.3,392.6c-0.2,0-0.6,0.1-0.9,0.4
		c-0.5,0.5-0.5,1.3,0,1.9c0.5,0.5,1.3,0.5,1.9,0l0,0c0.2-0.2,0.4-0.6,0.4-0.9c0-0.4-0.1-0.7-0.4-1
		C187.9,392.6,187.6,392.6,187.3,392.6z"/>
</g>
<g>
	<path d="M187.7,286.6c8.7-8.7,8.7-22.8,0-31.6c-8.7-8.7-22.8-8.7-31.6,0s-8.7,22.8,0,31.6c4.2,4.2,9.9,6.5,15.8,6.5
		C177.9,293.2,183.5,290.8,187.7,286.6z M164.7,263.5c4-4,10.6-4,14.6,0c4,4,4,10.6,0,14.6c-4,4-10.6,4-14.6,0
		C160.6,274.1,160.6,267.6,164.7,263.5C164.6,263.6,164.6,263.6,164.7,263.5z"/>
	<path d="M171.9,302.2c-8.4,0-16.2-3.3-22.1-9.2s-9.2-13.8-9.2-22.1c0-8.4,3.3-16.2,9.2-22.1c12.2-12.2,32.1-12.2,44.3,0
		c12.2,12.2,12.2,32.1,0,44.3l0,0C188.2,298.9,180.3,302.2,171.9,302.2z M171,270c-0.3,0.3-0.4,0.6-0.4,0.9c0,0.2,0.1,0.6,0.4,0.9
		c0.5,0.5,1.4,0.5,1.9,0s0.5-1.3,0-1.9C172.4,269.4,171.6,269.4,171,270L171,270z"/>
</g>
<g>
	<path d="M102.3,308.9c-8.7,8.7-8.7,22.8,0,31.6c8.7,8.7,22.8,8.7,31.6,0s8.7-22.8,0-31.6c0,0,0,0,0,0c-8.6-8.7-22.6-8.8-31.4-0.2
		C102.5,308.8,102.4,308.8,102.3,308.9z M125.4,332c-4,4-10.6,4-14.6,0c-4-4-4-10.6,0-14.6c4-4,10.5-4,14.6,0
		C129.4,321.4,129.5,327.9,125.4,332C125.5,331.9,125.4,331.9,125.4,332L125.4,332z"/>
	<path d="M118.1,356c-8,0-16-3.1-22.1-9.2c-12.2-12.2-12.2-32,0-44.3c0.1-0.1,0.2-0.2,0.3-0.3c5.8-5.8,13.6-9,21.9-9
		c0.1,0,0.1,0,0.2,0c8.3,0.1,16.1,3.3,22,9.3c5.9,5.9,9.1,13.7,9.1,22.1c0,8.4-3.3,16.2-9.2,22.1C134.2,352.9,126.1,356,118.1,356z
		 M118.1,323.4c-0.3,0-0.7,0.1-0.9,0.4c-0.5,0.5-0.5,1.3,0,1.9c0.3,0.3,0.7,0.4,0.9,0.4c0,0,0,0,0,0c0.2,0,0.5,0,0.8-0.3l0.2-0.2
		c0.3-0.3,0.3-0.6,0.3-0.9c0-0.2-0.1-0.6-0.4-0.9C118.8,323.5,118.5,323.4,118.1,323.4z"/>
</g>
<g>
	<path d="M91.9,391.9c-2.3-2.3-6.1-2.3-8.5,0c-2.3,2.3-2.3,6.1,0,8.5l16.2,16.2c2.3,2.3,6.1,2.3,8.5,0c2.3-2.3,2.3-6.1,0-8.5
		L91.9,391.9z"/>
	<path d="M103.9,427.3c-3.8,0-7.7-1.5-10.6-4.4l-16.2-16.2c-5.8-5.8-5.9-15.4,0-21.2c2.8-2.8,6.6-4.4,10.6-4.4c0,0,0,0,0,0
		c4,0,7.8,1.6,10.6,4.4l16.2,16.2c2.8,2.8,4.4,6.6,4.4,10.6c0,4-1.6,7.8-4.4,10.6C111.6,425.8,107.7,427.3,103.9,427.3z"/>
</g>
</svg>
