<svg id="Capa_1" enable-background="new 0 0 510 510" height="512" viewBox="0 0 510 510" width="512" xmlns="http://www.w3.org/2000/svg"><g><g><path d="m255 437.5 15-35-15-30-60 10v45z" fill="#333b73"/><path d="m255 52.5h-255v330h255l10-174.667z" fill="#424b91"/><path d="m255 372.5v65l60-10v-45z" fill="#262e5a"/><path d="m510 382.5v-330h-255v330z" fill="#333b73"/><path d="m165 427.5v30h90l15-15-15-15c-9.503 0-80.658 0-90 0z" fill="#424b91"/><path d="m255 427.5v30h90v-30c-11.219 0-80.184 0-90 0z" fill="#333b73"/><path d="m30 82.5v240h225l10-95.5-10-144.5z" fill="#fdf1f1"/><path d="m255 82.5h225v240h-225z" fill="#ece3ef"/><path d="m60 247.5v30h195l10-15.5-10-14.5z" fill="#ece3ef"/><path d="m255 247.5h195v30h-195z" fill="#cccce5"/><path d="m240 217.5c-13.68 0-26.54-5.327-36.213-15l-38.787-38.787c-8.293-8.291-21.709-8.29-30 0l-38.787 38.787c-9.673 9.673-22.533 15-36.213 15v-30c5.666 0 10.993-2.207 15-6.213l38.787-38.787c20.014-20.014 52.409-20.017 72.426 0l38.787 38.787c4.007 4.006 9.334 6.213 15 6.213z" fill="#f96"/><path d="m113.787 202.5-38.787-38.787c-4.007-4.006-9.334-6.213-15-6.213v-30c13.68 0 26.54 5.327 36.213 15l38.787 38.787c8.293 8.291 21.709 8.29 30 0l38.787-38.787c9.673-9.673 22.533-15 36.213-15v30c-5.666 0-10.993 2.207-15 6.213l-38.787 38.787c-20.014 20.014-52.409 20.017-72.426 0z" fill="#0df"/><path d="m270 127.5h180v90h-180z" fill="#cccce5"/></g></g></svg>