<svg xmlns="http://www.w3.org/2000/svg" viewBox="0 0 243.41 28.05">
  <title>logo</title>
  <g>
    <g>
      <path d="M10.22,30.25a21.79,21.79,0,0,1-4-.35A19.35,19.35,0,0,1,2.7,29,15.47,15.47,0,0,1,0,27.66l2.73-5.21a17.69,17.69,0,0,0,2.61,1.31,15.19,15.19,0,0,0,2.75.82,14.15,14.15,0,0,0,2.83.28,7.66,7.66,0,0,0,2.23-.28,3.29,3.29,0,0,0,1.43-.77,1.55,1.55,0,0,0,.51-1.15,1.31,1.31,0,0,0-.65-1.12,5.92,5.92,0,0,0-1.69-.78c-.7-.21-1.48-.42-2.33-.63a21,21,0,0,1-2.56-.8A11.64,11.64,0,0,1,5.51,18.1a5.57,5.57,0,0,1-1.69-1.83,5.59,5.59,0,0,1-.63-2.79A7.61,7.61,0,0,1,4.62,8.89a9.31,9.31,0,0,1,4.08-3A16.39,16.39,0,0,1,15,4.76a21,21,0,0,1,4.86.54,13.79,13.79,0,0,1,3.93,1.56l-2.56,5.19a10.37,10.37,0,0,0-3.13-1.42,13.29,13.29,0,0,0-3.56-.48,7.9,7.9,0,0,0-2.41.32,3.58,3.58,0,0,0-1.51.86,1.7,1.7,0,0,0-.53,1.21,1.37,1.37,0,0,0,.65,1.15,5.75,5.75,0,0,0,1.72.77c.71.21,1.49.43,2.33.65s1.68.48,2.54.79a11.07,11.07,0,0,1,2.34,1.15,5.83,5.83,0,0,1,1.74,1.79,5.1,5.1,0,0,1,.66,2.7,7.4,7.4,0,0,1-1.47,4.58,9.46,9.46,0,0,1-4.11,3.05A16.53,16.53,0,0,1,10.22,30.25Z" transform="translate(0 -2.21)"/>
      <path d="M29.41,29.76l2-10.4.81,4.24L24.93,5.25h7l5.29,13.34H32.88L43.6,5.25h7L36.07,23.6l2.34-4.24-2.06,10.4Z" transform="translate(0 -2.21)"/>
      <path d="M47.38,29.76l4.9-24.51H58L67.9,21.61l-2.35,0L68.77,5.25h6.8L70.66,29.76H65L55.08,13.41l2.35,0L54.17,29.76Z" transform="translate(0 -2.21)"/>
      <path d="M75.6,29.76,80.5,5.25H92.9q4.2,0,6.34,1.47A4.88,4.88,0,0,1,101.37,11a6,6,0,0,1-1.24,3.85,7.78,7.78,0,0,1-3.38,2.4,13.51,13.51,0,0,1-4.83.82l1-1.68a9,9,0,0,1,5.4,1.45,4.82,4.82,0,0,1,2,4.15,6.43,6.43,0,0,1-1.49,4.38,8.9,8.9,0,0,1-4,2.55,18.22,18.22,0,0,1-5.71.84Zm7.84-5H89.5A5,5,0,0,0,92.36,24a2.46,2.46,0,0,0,1.06-2.17,1.71,1.71,0,0,0-.8-1.58,4,4,0,0,0-2.07-.49H83.83l1-4.79h5.6a6,6,0,0,0,2.08-.32,2.52,2.52,0,0,0,1.28-.94,2.73,2.73,0,0,0,.42-1.54,1.6,1.6,0,0,0-.77-1.46,4.14,4.14,0,0,0-2.14-.47h-4.9Z" transform="translate(0 -2.21)"/>
      <path d="M102.53,29.76l4.9-24.51h6.93l-4.9,24.51Z" transform="translate(0 -2.21)"/>
      <path d="M127.64,30.25a14.31,14.31,0,0,1-6.5-1.36,10.13,10.13,0,0,1-4.2-3.8,10.58,10.58,0,0,1-1.49-5.62,15.06,15.06,0,0,1,1.12-5.9,14,14,0,0,1,3.15-4.66,14.21,14.21,0,0,1,4.83-3.06,16.93,16.93,0,0,1,6.2-1.09,14.48,14.48,0,0,1,6.5,1.37,10,10,0,0,1,4.22,3.81,10.72,10.72,0,0,1,1.47,5.61,15.27,15.27,0,0,1-1.11,5.9,13.4,13.4,0,0,1-3.15,4.65,14.27,14.27,0,0,1-4.86,3.07A17.14,17.14,0,0,1,127.64,30.25Zm.59-5.74a7.62,7.62,0,0,0,3.24-.66A7.17,7.17,0,0,0,133.9,22a8,8,0,0,0,1.53-2.75,10.75,10.75,0,0,0,.5-3.27,5.79,5.79,0,0,0-.68-2.86,4.65,4.65,0,0,0-2-1.92,6.52,6.52,0,0,0-3.11-.69,7.55,7.55,0,0,0-3.21.67A7.12,7.12,0,0,0,124.52,13,8.2,8.2,0,0,0,123,15.77a10.25,10.25,0,0,0-.53,3.28,5.78,5.78,0,0,0,.69,2.85,4.68,4.68,0,0,0,2,1.93A6.61,6.61,0,0,0,128.23,24.51Z" transform="translate(0 -2.21)"/>
    </g>
    <g>
      <path d="M160.46,30.18a20.77,20.77,0,0,1-3.89-.36,18.84,18.84,0,0,1-3.41-1,10.57,10.57,0,0,1-2.54-1.39l2.27-4.37a13.81,13.81,0,0,0,5.2,2.25,14,14,0,0,0,2.89.3,9.88,9.88,0,0,0,2.72-.33,3.76,3.76,0,0,0,1.73-1A2.15,2.15,0,0,0,166,22.8a1.7,1.7,0,0,0-.64-1.4,5.65,5.65,0,0,0-1.72-.9c-.71-.24-1.51-.48-2.38-.72a27.18,27.18,0,0,1-2.61-.82,11,11,0,0,1-2.38-1.19,5.19,5.19,0,0,1-2.38-4.64,7.2,7.2,0,0,1,1.38-4.39,8.69,8.69,0,0,1,3.91-2.89,15.69,15.69,0,0,1,5.91-1,20.32,20.32,0,0,1,4.7.53,12,12,0,0,1,3.81,1.57l-2.17,4.35a11.43,11.43,0,0,0-3.13-1.41,13.17,13.17,0,0,0-3.52-.49,9,9,0,0,0-2.82.39,4.05,4.05,0,0,0-1.79,1.07,2.42,2.42,0,0,0-.64,1.56,1.77,1.77,0,0,0,.66,1.4,5.33,5.33,0,0,0,1.75.92c.73.25,1.52.49,2.38.74s1.73.51,2.59.81a11,11,0,0,1,2.39,1.13,5.75,5.75,0,0,1,1.75,1.79,5,5,0,0,1,.66,2.66,7.18,7.18,0,0,1-1.4,4.4,9.08,9.08,0,0,1-3.94,2.9A15.63,15.63,0,0,1,160.46,30.18Z" transform="translate(0 -2.21)" fill="#666"/>
      <path d="M181.89,30a7.73,7.73,0,0,1-4-1,5.47,5.47,0,0,1-2.38-2.93,9,9,0,0,1-.14-4.76l2.07-10.43h5.5l-2,10.08a4.31,4.31,0,0,0,.35,3.19,3,3,0,0,0,2.66,1.12,5.06,5.06,0,0,0,3.41-1.19,6.11,6.11,0,0,0,1.84-3.65l1.93-9.55h5.46l-3.75,18.83h-5.18l1.05-5.32.77,1.58a8.38,8.38,0,0,1-3.34,3.06A9.56,9.56,0,0,1,181.89,30Z" transform="translate(0 -2.21)" fill="#666"/>
      <path d="M197.85,29.76l3.72-18.83h5.49l-3.78,18.83ZM205.24,8.3a3.2,3.2,0,0,1-2.31-.84,2.69,2.69,0,0,1-.87-2,3.07,3.07,0,0,1,1-2.31,3.65,3.65,0,0,1,2.61-.94A3.33,3.33,0,0,1,208,3a2.51,2.51,0,0,1,.86,2,3.21,3.21,0,0,1-1,2.43A3.67,3.67,0,0,1,205.24,8.3Z" transform="translate(0 -2.21)" fill="#666"/>
      <path d="M208.88,15.55l.84-4.2h13.07l-.84,4.2ZM216,30a6.82,6.82,0,0,1-3.46-.82,4.56,4.56,0,0,1-2.05-2.38,6.64,6.64,0,0,1-.2-3.73l3.3-16.35H219l-3.29,16.35A2.59,2.59,0,0,0,216,25a1.8,1.8,0,0,0,1.65.7,4,4,0,0,0,1.15-.17,5.06,5.06,0,0,0,1.09-.49l.8,3.88a6.56,6.56,0,0,1-2.24.88A12.64,12.64,0,0,1,216,30Z" transform="translate(0 -2.21)" fill="#666"/>
      <path d="M232.94,30A11.55,11.55,0,0,1,227.86,29a8,8,0,0,1-3.36-2.94,8.19,8.19,0,0,1-1.19-4.44A11.06,11.06,0,0,1,224.73,16a10.41,10.41,0,0,1,3.92-3.9,11.34,11.34,0,0,1,5.76-1.43,10.34,10.34,0,0,1,4.78,1,7.58,7.58,0,0,1,3.12,2.89,8.42,8.42,0,0,1,1.1,4.37,9.09,9.09,0,0,1-.11,1.47q-.11.73-.24,1.41H227.48l.59-3.19H240.5l-2.27,1a4.39,4.39,0,0,0-.16-2.64,3.53,3.53,0,0,0-1.47-1.65,4.75,4.75,0,0,0-2.43-.58,5.18,5.18,0,0,0-3,.86A5.35,5.35,0,0,0,229.25,18a8.51,8.51,0,0,0-.65,3.44,4,4,0,0,0,1.21,3.2,5.44,5.44,0,0,0,3.69,1.07,8.34,8.34,0,0,0,2.77-.46A6.84,6.84,0,0,0,238.54,24l2.28,3.57a11,11,0,0,1-3.7,1.91A14.43,14.43,0,0,1,232.94,30Z" transform="translate(0 -2.21)" fill="#666"/>
    </g>
  </g>
</svg>
