<svg xmlns="http://www.w3.org/2000/svg" viewBox="0 0 299.54 44.05">
  <title>logo</title>
  <g>
    <g>
      <g>
        <path d="M66.36,37.86a22,22,0,0,1-4-.36,19.57,19.57,0,0,1-3.5-.94,15.47,15.47,0,0,1-2.7-1.3l2.74-5.21a18.09,18.09,0,0,0,2.6,1.31,15.19,15.19,0,0,0,2.75.82,14.25,14.25,0,0,0,2.84.28,7.64,7.64,0,0,0,2.22-.28,3.39,3.39,0,0,0,1.44-.77,1.53,1.53,0,0,0,.51-1.15,1.33,1.33,0,0,0-.65-1.12,6,6,0,0,0-1.7-.78c-.7-.21-1.48-.42-2.33-.62A20.88,20.88,0,0,1,64,26.93a11.13,11.13,0,0,1-2.35-1.23A5.6,5.6,0,0,1,60,23.87a5.59,5.59,0,0,1-.63-2.79,7.56,7.56,0,0,1,1.44-4.59,9.22,9.22,0,0,1,4.07-3,16.62,16.62,0,0,1,6.29-1.09A21.06,21.06,0,0,1,76,12.9a13.72,13.72,0,0,1,3.92,1.56l-2.56,5.19a10.37,10.37,0,0,0-3.13-1.42,13.26,13.26,0,0,0-3.55-.47,8,8,0,0,0-2.42.31,3.64,3.64,0,0,0-1.51.86,1.68,1.68,0,0,0-.52,1.21,1.34,1.34,0,0,0,.65,1.15,5.68,5.68,0,0,0,1.71.77c.71.21,1.49.43,2.33.65s1.69.48,2.54.79a11.4,11.4,0,0,1,2.35,1.15,5.79,5.79,0,0,1,1.73,1.79,5.1,5.1,0,0,1,.66,2.7,7.4,7.4,0,0,1-1.47,4.58,9.46,9.46,0,0,1-4.11,3.05A16.47,16.47,0,0,1,66.36,37.86Z"/>
        <path d="M85.55,37.36l2-10.4.8,4.24L81.07,12.85h7l5.29,13.34H89L99.73,12.85h7L92.2,31.2,94.55,27l-2.07,10.4Z"/>
        <path d="M103.51,37.36l4.9-24.51h5.71L124,29.21l-2.35,0,3.23-16.32h6.79l-4.9,24.51h-5.71L111.21,21l2.35,0L110.3,37.36Z"/>
        <path d="M131.73,37.36l4.91-24.51H149c2.8,0,4.92.49,6.34,1.47a4.89,4.89,0,0,1,2.14,4.28,6,6,0,0,1-1.25,3.85,7.66,7.66,0,0,1-3.38,2.4,13.29,13.29,0,0,1-4.83.82l1-1.68a9,9,0,0,1,5.39,1.45,4.83,4.83,0,0,1,2,4.15A6.48,6.48,0,0,1,155,34a8.88,8.88,0,0,1-4.05,2.55,18.16,18.16,0,0,1-5.7.84Zm7.85-5h6.06a4.93,4.93,0,0,0,2.85-.74,2.47,2.47,0,0,0,1.07-2.17,1.72,1.72,0,0,0-.81-1.58,4,4,0,0,0-2.06-.49H140l.95-4.79h5.6a6.12,6.12,0,0,0,2.09-.32,2.5,2.5,0,0,0,1.27-.94,2.73,2.73,0,0,0,.42-1.54,1.58,1.58,0,0,0-.77-1.46,4.1,4.1,0,0,0-2.13-.47h-4.9Z"/>
        <path d="M158.66,37.36l4.9-24.51h6.94l-4.9,24.51Z"/>
        <path d="M183.77,37.86a14.34,14.34,0,0,1-6.5-1.37,10.13,10.13,0,0,1-4.2-3.8,10.58,10.58,0,0,1-1.49-5.62,15.24,15.24,0,0,1,1.12-5.9,13.93,13.93,0,0,1,8-7.72,17.06,17.06,0,0,1,6.2-1.09,14.44,14.44,0,0,1,6.49,1.37,9.92,9.92,0,0,1,4.22,3.82,10.66,10.66,0,0,1,1.47,5.6,15.46,15.46,0,0,1-1.1,5.9,13.82,13.82,0,0,1-3.15,4.66A14.45,14.45,0,0,1,190,36.77,17.14,17.14,0,0,1,183.77,37.86Zm.59-5.75a7.56,7.56,0,0,0,3.24-.66A7.31,7.31,0,0,0,190,29.59a8.11,8.11,0,0,0,1.52-2.75,10.46,10.46,0,0,0,.51-3.27,5.79,5.79,0,0,0-.69-2.86,4.68,4.68,0,0,0-2-1.92,6.59,6.59,0,0,0-3.12-.68,7.47,7.47,0,0,0-3.2.66,7.06,7.06,0,0,0-2.44,1.86,8.32,8.32,0,0,0-1.54,2.75,10.14,10.14,0,0,0-.52,3.27,5.75,5.75,0,0,0,.68,2.85,4.74,4.74,0,0,0,2,1.93A6.64,6.64,0,0,0,184.36,32.11Z"/>
      </g>
      <g>
        <path d="M216.59,37.78a20.77,20.77,0,0,1-3.89-.36,18.84,18.84,0,0,1-3.41-1,10.77,10.77,0,0,1-2.54-1.39L209,30.68a13.51,13.51,0,0,0,2.45,1.38,13.84,13.84,0,0,0,5.64,1.17,9.8,9.8,0,0,0,2.71-.33,3.65,3.65,0,0,0,1.73-1,2.16,2.16,0,0,0,.6-1.52,1.71,1.71,0,0,0-.65-1.4,5.64,5.64,0,0,0-1.72-.9c-.71-.24-1.5-.48-2.38-.72s-1.74-.5-2.61-.82a11.27,11.27,0,0,1-2.38-1.19,5.44,5.44,0,0,1-1.73-1.84,5.52,5.52,0,0,1-.65-2.8,7.2,7.2,0,0,1,1.38-4.39,8.87,8.87,0,0,1,3.91-2.89,15.71,15.71,0,0,1,5.92-1,20.24,20.24,0,0,1,4.69.53,12.11,12.11,0,0,1,3.82,1.57l-2.18,4.35a11,11,0,0,0-3.13-1.4,12.73,12.73,0,0,0-3.52-.49,9,9,0,0,0-2.82.38,4,4,0,0,0-1.78,1.07,2.38,2.38,0,0,0-.65,1.56,1.77,1.77,0,0,0,.66,1.4,5.39,5.39,0,0,0,1.76.92c.72.25,1.51.5,2.38.74s1.72.51,2.59.81A10.87,10.87,0,0,1,225.45,25a5.64,5.64,0,0,1,1.75,1.79,5,5,0,0,1,.67,2.66,7.12,7.12,0,0,1-1.41,4.4,9,9,0,0,1-3.93,2.9A15.72,15.72,0,0,1,216.59,37.78Z" fill="#666"/>
        <path d="M238,37.65a7.72,7.72,0,0,1-4-1,5.43,5.43,0,0,1-2.38-2.93,8.8,8.8,0,0,1-.14-4.76l2.06-10.43h5.5l-2,10.08a4.31,4.31,0,0,0,.35,3.19,3,3,0,0,0,2.66,1.12,5.06,5.06,0,0,0,3.41-1.19,6.06,6.06,0,0,0,1.84-3.64l1.93-9.56h5.46L249,37.36h-5.19L244.81,32l.77,1.58a8.32,8.32,0,0,1-3.34,3.06A9.57,9.57,0,0,1,238,37.65Z" fill="#666"/>
        <path d="M254,37.36l3.71-18.83h5.5l-3.78,18.83Zm7.39-21.46a3.19,3.19,0,0,1-2.31-.84,2.66,2.66,0,0,1-.88-2,3,3,0,0,1,1-2.31,3.62,3.62,0,0,1,2.61-.94,3.3,3.3,0,0,1,2.32.77,2.48,2.48,0,0,1,.86,2A3.17,3.17,0,0,1,264,15,3.65,3.65,0,0,1,261.38,15.9Z" fill="#666"/>
        <path d="M265,23.15l.84-4.2h13.06l-.84,4.2Zm7.11,14.5a6.86,6.86,0,0,1-3.47-.83,4.6,4.6,0,0,1-2.05-2.38,6.65,6.65,0,0,1-.19-3.73l3.29-16.35h5.46l-3.29,16.35a2.53,2.53,0,0,0,.25,1.89,1.8,1.8,0,0,0,1.64.7,4.12,4.12,0,0,0,1.16-.17,5.21,5.21,0,0,0,1.08-.49l.81,3.88a6.72,6.72,0,0,1-2.24.88A12.81,12.81,0,0,1,272.13,37.65Z" fill="#666"/>
        <path d="M289.07,37.65A11.51,11.51,0,0,1,284,36.59a8,8,0,0,1-3.37-2.94,8.19,8.19,0,0,1-1.19-4.44,11.12,11.12,0,0,1,1.42-5.62,10.51,10.51,0,0,1,3.92-3.91,11.34,11.34,0,0,1,5.76-1.43,10.31,10.31,0,0,1,4.78,1,7.46,7.46,0,0,1,3.12,2.89,8.32,8.32,0,0,1,1.1,4.37,10.52,10.52,0,0,1-.1,1.48c-.07.49-.15.95-.25,1.4H283.61l.6-3.19h12.43l-2.28,1a4.31,4.31,0,0,0-.16-2.64,3.43,3.43,0,0,0-1.47-1.65,4.7,4.7,0,0,0-2.43-.58,5.23,5.23,0,0,0-3,.86,5.35,5.35,0,0,0-1.89,2.36,8.68,8.68,0,0,0-.65,3.44,4,4,0,0,0,1.21,3.2,5.47,5.47,0,0,0,3.69,1.07,8.34,8.34,0,0,0,2.77-.46,6.79,6.79,0,0,0,2.28-1.26L297,35.12A11,11,0,0,1,293.26,37,14.51,14.51,0,0,1,289.07,37.65Z" fill="#666"/>
      </g>
    </g>
    <g>
      <path d="M25.43,23.21v10c0,.25-.36.45-.79.45H22.15c-.44,0-.79-.2-.79-.45v-10c0-.25.35-.45.79-.45h2.49C25.06,22.76,25.43,23,25.43,23.21Z" fill="#696969"/>
      <path d="M45.36,16v.71a.8.8,0,0,1-.79.79H2.23a.8.8,0,0,1-.8-.79h0V16a.8.8,0,0,1,.34-.65L22.88.15a.8.8,0,0,1,.93,0L45,15.36A.8.8,0,0,1,45.36,16Z" fill="#ec008c"/>
      <path d="M46.79,42.21v1.21a.63.63,0,0,1-.63.63H.63A.63.63,0,0,1,0,43.42H0V42.21a.63.63,0,0,1,.63-.63h.3A.63.63,0,0,0,1.56,41h0V39.72a.63.63,0,0,1,.62-.63H44.89a.63.63,0,0,1,.63.63h0V41a.64.64,0,0,0,.64.63h0A.63.63,0,0,1,46.79,42.21Z" fill="#ec008c"/>
      <path d="M11.55,31.18a31.93,31.93,0,0,0,2.18-4A24,24,0,0,1,17,21.79c1.5-1.71,3.19-3.1,5.61-3.32a7,7,0,0,1,5.52,1.69,20.29,20.29,0,0,1,2.41,2.58.5.5,0,0,1,.1.64,21.79,21.79,0,0,0-1.26,2.39c-.21.42-.3.42-.55,0A26.07,26.07,0,0,0,25.22,22a6,6,0,0,0-3.08-.13h0c-1,.32-3.1,2.53-3.27,2.78a31.31,31.31,0,0,0-2.35,4.24,31,31,0,0,1-2.56,4.53,9.75,9.75,0,0,1-7.38,4.24,1.74,1.74,0,0,1-1.87-.78,1.58,1.58,0,0,1,.55-2.16,1.72,1.72,0,0,1,.59-.2,21.54,21.54,0,0,0,2.62-.59C9.52,33.56,11.47,31.3,11.55,31.18Z"/>
      <path d="M17.91,30.28a12.68,12.68,0,0,0,1.22,1.86A6,6,0,0,0,22,34.46a4.65,4.65,0,0,0,3.1-.09,4.31,4.31,0,0,0,1-.68A19.88,19.88,0,0,0,30.32,28c.78-1.41,1.43-2.9,2.31-4.24a10.68,10.68,0,0,1,7.51-5.08l.58-.05A1.58,1.58,0,0,1,42.35,20,1.57,1.57,0,0,1,41,21.77a8,8,0,0,0-4.91,2.72,16,16,0,0,0-2.29,3.75,39.64,39.64,0,0,1-3.27,5.31A12.79,12.79,0,0,1,27,36.94a7.13,7.13,0,0,1-6.4.48A6.9,6.9,0,0,1,18,35.69a15.6,15.6,0,0,1-1.77-2c-.07-.1-.14-.18-.06-.31C16.82,32.37,17.35,31.35,17.91,30.28Z"/>
      <path d="M37.48,33.45c.33.2.63.43,1,.63a14.24,14.24,0,0,0,2.4.85,1.56,1.56,0,0,1,1.38,1.7,1.53,1.53,0,0,1-1.6,1.44h0a8.86,8.86,0,0,1-4.78-1.78,12.18,12.18,0,0,1-2.56-2.51.51.51,0,0,1-.07-.64c.49-.82,1-1.63,1.44-2.47.19-.32.24-.32.42,0A34.17,34.17,0,0,0,37.48,33.45Z"/>
      <path d="M12.23,25.94l-.93-1.42a6.49,6.49,0,0,0-5.1-3,1.68,1.68,0,0,1-1.47-.88,1.56,1.56,0,0,1,.63-2.12,1.53,1.53,0,0,1,.75-.2A9.3,9.3,0,0,1,11.38,20a10.34,10.34,0,0,1,2.41,2.44c.09.12.16.21.06.38a32.6,32.6,0,0,0-1.53,2.93Z"/>
      <path d="M9.52,23.73v9c0,.22-.36.4-.79.4H6.24c-.44,0-.79-.18-.79-.4v-9c0-.22.35-.41.79-.41H8.72C9.16,23.32,9.52,23.51,9.52,23.73Z" fill="#696969"/>
      <path d="M43.07,23.73v9c0,.22-.36.4-.79.4H39.77c-.43,0-.79-.18-.79-.4v-9c0-.22.36-.41.79-.41h2.51C42.71,23.32,43.07,23.51,43.07,23.73Z" fill="#696969"/>
    </g>
  </g>
</svg>
