<?xml version="1.0" encoding="iso-8859-1"?>
<!-- Generator: Adobe Illustrator 16.0.0, SVG Export Plug-In . SVG Version: 6.00 Build 0)  -->
<!DOCTYPE svg PUBLIC "-//W3C//DTD SVG 1.1//EN" "http://www.w3.org/Graphics/SVG/1.1/DTD/svg11.dtd">
<svg version="1.1" id="Capa_1" xmlns="http://www.w3.org/2000/svg" xmlns:xlink="http://www.w3.org/1999/xlink" x="0px" y="0px"
	 width="403.012px" height="403.012px" viewBox="0 0 403.012 403.012" style="enable-background:new 0 0 403.012 403.012;"
	 xml:space="preserve">
<g>
	<g>
		<path d="M348.166,236.799c-35.496,22.644-88.128,33.048-125.46,15.912c7.344-4.896,14.688-11.017,20.808-17.136
			c36.108,9.18,78.336,0.611,104.652-25.093c6.12-5.508-3.061-14.688-9.181-9.18c-22.644,22.032-54.468,28.152-85.067,23.256
			c17.136-20.808,25.092-44.676,13.464-68.544c-12.24-24.48-38.556-47.124-67.32-36.108c-26.928,9.792-34.884,44.676-34.272,69.768
			c0,14.688,3.672,27.54,9.18,37.944c-14.688,4.896-29.376,6.731-40.392,6.731c-52.632-1.836-86.904-64.26-110.16-104.04
			c-2.448-4.896-9.18-0.612-7.344,4.284c29.988,67.32,85.68,132.192,164.016,104.04c4.284,5.508,9.18,11.016,14.688,15.3
			c-21.42,10.404-44.064,15.912-63.036,15.3C72.154,266.787,2.998,214.154,8.506,148.671c0.612-4.284-6.732-4.896-7.344-1.224
			c-12.24,80.172,74.664,135.864,146.268,134.028c17.136-0.611,39.78-7.956,61.2-20.195c42.84,21.42,107.1,12.852,145.656-12.853
			C362.242,243.531,355.51,231.902,348.166,236.799z M181.09,199.467c-5.508-22.644,1.224-52.02,20.808-66.096
			c32.437-23.256,62.425,31.212,55.08,57.528c-3.06,10.404-8.567,20.808-16.523,29.988c-1.836-0.612-3.672-1.224-4.896-1.836
			c-4.284-1.224-9.18-3.672-12.852-6.12c25.092-23.868,33.66-56.916-11.628-74.664c-3.061-1.224-5.508,0.612-7.345,3.06
			c-19.583,26.928-18.972,53.856,0.612,73.44c-4.284,3.061-9.18,5.508-14.688,7.344C185.986,215.379,182.926,208.035,181.09,199.467
			z M200.062,181.107c-0.612-10.404,4.896-19.584,9.792-28.152c5.508-9.18,22.645,18.972,21.42,25.704
			c-1.836,11.016-8.567,20.196-17.748,28.152C206.182,200.69,201.286,192.123,200.062,181.107z M195.778,231.902
			c5.508-3.06,11.016-6.731,15.912-10.403c3.672,2.448,7.956,4.896,12.853,7.344c1.836,0.612,3.06,1.224,4.896,1.836
			c-6.12,5.508-12.239,9.792-19.584,14.076C204.958,241.694,200.062,236.799,195.778,231.902z"/>
		<path d="M398.35,182.331c-29.988-4.284-61.812-4.896-91.8-1.224c-4.896,0.612-4.896,6.732,0,7.344
			c26.316,3.06,53.856,2.448,80.784,6.12c-7.956,27.54-15.3,55.08-23.256,82.008c-2.448,9.18,12.239,13.464,14.688,4.284
			c8.568-29.988,15.912-59.977,23.868-89.964C403.857,187.839,402.021,182.943,398.35,182.331z"/>
	</g>
</g>
<g>
</g>
<g>
</g>
<g>
</g>
<g>
</g>
<g>
</g>
<g>
</g>
<g>
</g>
<g>
</g>
<g>
</g>
<g>
</g>
<g>
</g>
<g>
</g>
<g>
</g>
<g>
</g>
<g>
</g>
</svg>
