<?xml version="1.0" encoding="utf-8"?>
<!-- Generator: Adobe Illustrator 23.0.1, SVG Export Plug-In . SVG Version: 6.00 Build 0)  -->
<svg version="1.1" id="Capa_1" xmlns="http://www.w3.org/2000/svg" xmlns:xlink="http://www.w3.org/1999/xlink" x="0px" y="0px"
	 viewBox="0 0 187.5 187.5" style="enable-background:new 0 0 187.5 187.5;" xml:space="preserve">
<g>
	<path d="M89.4,2.9C47.1-10.5,15,25,6,66c-9.9,45.3,6.7,97.7,52.4,115.4c53,20.6,119.1-13.2,125.2-70.5
		C189.7,55.2,141.7,9.1,89.4,2.9z M62.8,165.8c-38.2-12.9-48.2-60.6-41.6-95.7c5-26.7,20.7-47.6,43.3-56.4c1,2.6,3.4,4.7,7.2,4.7
		c49.8,0,95.2,33.4,96,86.1C168.4,157.2,106.6,180.7,62.8,165.8z"/>
</g>
</svg>
